<svg width="29" height="25" viewBox="0 0 29 25" xmlns="http://www.w3.org/2000/svg"><path fill="#ffffff" d="M24.82805 0h-8.0520084c-.0833976 0-.1638378.0310529-.2265339.0871291l-1.8229176 1.3195992c-.1298282.1157702-.3235354.1157702-.4530678 0L12.4506046.0871291C12.3879085.0310529 12.3074683 0 12.2240707 0H4.1720623c-.095227 0-.1869053.039796-.2519672.1106449C1.5012691 2.7404973.0151949 6.2726939.0001123 10.1585322-.03094 18.224458 6.3809157 24.8857659 14.2924494 24.9985212 22.3956201 25.1139899 29 18.4523806 29 10.2182262c0-3.9096556-1.4890316-7.464162-3.9202785-10.1075813C25.0146595.039796 24.9232771 0 24.82805 0zm-3.125044 3.8047389c1.4704002 1.7142429 2.3629319 3.9569887 2.3629319 6.4134873 0 5.5608882-4.566462 10.0349234-10.0848987 9.7376593-4.9207539-.2650051-8.8703103-4.3712289-9.0409501-9.3915547-.0881294-2.5909608.8174147-4.9642496 2.35613-6.758989.1179987-.1377785.1094224-.3455016-.0171527-.4748386L4.318156.3023893l9.7510126 7.1331317c.2516714.2062156.6101037.2062156.8617751 0L24.6754502.309022l-2.9544043 3.0211797c-.1262793.129337-.1357429.3370601-.0180399.4745372z" fill-rule="evenodd"/></svg> 
